HIERARCHY
ROOT Root
{
  OFFSET 0.0 0.0 0.0
  CHANNELS 6 Xposition Yposition Zposition Zrotation Yrotation Xrotation
  JOINT Hips
  {
    OFFSET 0.0 100.0 0.0
    CHANNELS 6 Xposition Yposition Zposition Zrotation Yrotation Xrotation
    JOINT Spine1
    {
      OFFSET 5.003913 -0.037094 -0.013727
      CHANNELS 3 Zrotation Yrotation Xrotation
      JOINT Spine2
      {
        OFFSET 7.125363 -1e-06 0.0
        CHANNELS 3 Zrotation Yrotation Xrotation
        JOINT Chest
        {
          OFFSET 7.594027 1e-06 0.0
          CHANNELS 3 Zrotation Yrotation Xrotation
          JOINT Neck1
          {
            OFFSET 26.313086 -0.460272 -0.181672
            CHANNELS 3 Zrotation Yrotation Xrotation
            JOINT Neck2
            {
              OFFSET 8.045911 0.0 0.0
              CHANNELS 3 Zrotation Yrotation Xrotation
              JOINT Head
              {
                OFFSET 6.432774 0.0 0.0
                CHANNELS 3 Zrotation Yrotation Xrotation
                JOINT HeadEnd
                {
                  OFFSET 16.169773 0.06451 0.00362
                  CHANNELS 3 Zrotation Yrotation Xrotation
                }
                JOINT Jaw
                {
                  OFFSET 0.108741 3.12938 0.002639
                  CHANNELS 3 Zrotation Yrotation Xrotation
                }
                JOINT LeftEye
                {
                  OFFSET 4.45173 8.166359 3.206392
                  CHANNELS 3 Zrotation Yrotation Xrotation
                }
                JOINT RightEye
                {
                  OFFSET 4.436895 8.135758 -3.222429
                  CHANNELS 3 Zrotation Yrotation Xrotation
                }
              }
            }
          }
          JOINT LeftShoulder
          {
            OFFSET 23.218927 5.195579 1.621656
            CHANNELS 3 Zrotation Yrotation Xrotation
            JOINT LeftArm
            {
              OFFSET 15.902118 2e-06 -2e-06
              CHANNELS 3 Zrotation Yrotation Xrotation
              JOINT LeftForeArm
              {
                OFFSET 28.739307 0.0 -1e-06
                CHANNELS 3 Zrotation Yrotation Xrotation
                JOINT LeftHand
                {
                  OFFSET 27.093981 -4e-06 0.0
                  CHANNELS 3 Zrotation Yrotation Xrotation
                  JOINT LeftHandThumb1
                  {
                    OFFSET 2.276781 3.380274 0.83384
                    CHANNELS 3 Zrotation Yrotation Xrotation
                    JOINT LeftHandThumb2
                    {
                      OFFSET 4.705309 -1e-06 -1e-06
                      CHANNELS 3 Zrotation Yrotation Xrotation
                      JOINT LeftHandThumb3
                      {
                        OFFSET 2.798515 0.0 3e-06
                        CHANNELS 3 Zrotation Yrotation Xrotation
                        JOINT LeftHandThumbEnd
                        {
                          OFFSET 3.180793 4e-06 -4e-06
                          CHANNELS 3 Zrotation Yrotation Xrotation
                        }
                      }
                    }
                  }
                  JOINT LeftHandIndex1
                  {
                    OFFSET 3.247786 2.352677 0.137192
                    CHANNELS 3 Zrotation Yrotation Xrotation
                    JOINT LeftHandIndex2
                    {
                      OFFSET 6.367095 1e-06 0.0
                      CHANNELS 3 Zrotation Yrotation Xrotation
                      JOINT LeftHandIndex3
                      {
                        OFFSET 3.662364 0.0 0.0
                        CHANNELS 3 Zrotation Yrotation Xrotation
                        JOINT LeftHandIndex4
                        {
                          OFFSET 2.329242 4e-06 -4e-06
                          CHANNELS 3 Zrotation Yrotation Xrotation
                          JOINT LeftHandIndexEnd
                          {
                            OFFSET 2.767823 1e-06 0.0
                            CHANNELS 3 Zrotation Yrotation Xrotation
                          }
                        }
                      }
                    }
                  }
                  JOINT LeftHandMiddle1
                  {
                    OFFSET 3.163612 0.945023 -0.406112
                    CHANNELS 3 Zrotation Yrotation Xrotation
                    JOINT LeftHandMiddle2
                    {
                      OFFSET 6.276789 3e-06 0.0
                      CHANNELS 3 Zrotation Yrotation Xrotation
                      JOINT LeftHandMiddle3
                      {
                        OFFSET 4.35652 -1e-06 4e-06
                        CHANNELS 3 Zrotation Yrotation Xrotation
                        JOINT LeftHandMiddle4
                        {
                          OFFSET 2.996877 0.0 8e-06
                          CHANNELS 3 Zrotation Yrotation Xrotation
                          JOINT LeftHandMiddleEnd
                          {
                            OFFSET 2.323256 3e-06 -4e-06
                            CHANNELS 3 Zrotation Yrotation Xrotation
                          }
                        }
                      }
                    }
                  }
                  JOINT LeftHandRing1
                  {
                    OFFSET 2.882606 -0.309162 0.107445
                    CHANNELS 3 Zrotation Yrotation Xrotation
                    JOINT LeftHandRing2
                    {
                      OFFSET 6.033198 0.0 4e-06
                      CHANNELS 3 Zrotation Yrotation Xrotation
                      JOINT LeftHandRing3
                      {
                        OFFSET 4.350578 3e-06 0.0
                        CHANNELS 3 Zrotation Yrotation Xrotation
                        JOINT LeftHandRing4
                        {
                          OFFSET 2.651321 2e-06 -7e-06
                          CHANNELS 3 Zrotation Yrotation Xrotation
                          JOINT LeftHandRingEnd
                          {
                            OFFSET 1.937663 1e-06 -4e-06
                            CHANNELS 3 Zrotation Yrotation Xrotation
                          }
                        }
                      }
                    }
                  }
                  JOINT LeftHandPinky1
                  {
                    OFFSET 2.865315 -1.525436 0.575687
                    CHANNELS 3 Zrotation Yrotation Xrotation
                    JOINT LeftHandPinky2
                    {
                      OFFSET 5.54936 1e-06 -8e-06
                      CHANNELS 3 Zrotation Yrotation Xrotation
                      JOINT LeftHandPinky3
                      {
                        OFFSET 3.070974 0.0 -4e-06
                        CHANNELS 3 Zrotation Yrotation Xrotation
                        JOINT LeftHandPinky4
                        {
                          OFFSET 1.549672 1e-06 0.0
                          CHANNELS 3 Zrotation Yrotation Xrotation
                          JOINT LeftHandPinkyEnd
                          {
                            OFFSET 1.952123 0.0 0.0
                            CHANNELS 3 Zrotation Yrotation Xrotation
                          }
                        }
                      }
                    }
                  }
                }
              }
            }
          }
          JOINT RightShoulder
          {
            OFFSET 23.161716 5.296122 -1.380114
            CHANNELS 3 Zrotation Yrotation Xrotation
            JOINT RightArm
            {
              OFFSET -16.027195 -2e-06 1.1e-05
              CHANNELS 3 Zrotation Yrotation Xrotation
              JOINT RightForeArm
              {
                OFFSET -28.736639 4e-06 2e-06
                CHANNELS 3 Zrotation Yrotation Xrotation
                JOINT RightHand
                {
                  OFFSET -27.133619 6e-06 0.0
                  CHANNELS 3 Zrotation Yrotation Xrotation
                  JOINT RightHandThumb1
                  {
                    OFFSET -2.274328 -3.351035 -0.83067
                    CHANNELS 3 Zrotation Yrotation Xrotation
                    JOINT RightHandThumb2
                    {
                      OFFSET -4.703594 -3e-06 2e-06
                      CHANNELS 3 Zrotation Yrotation Xrotation
                      JOINT RightHandThumb3
                      {
                        OFFSET -2.794935 -4e-06 -3e-06
                        CHANNELS 3 Zrotation Yrotation Xrotation
                        JOINT RightHandThumbEnd
                        {
                          OFFSET -3.183852 4e-06 1e-06
                          CHANNELS 3 Zrotation Yrotation Xrotation
                        }
                      }
                    }
                  }
                  JOINT RightHandIndex1
                  {
                    OFFSET -3.253496 -2.33755 -0.127667
                    CHANNELS 3 Zrotation Yrotation Xrotation
                    JOINT RightHandIndex2
                    {
                      OFFSET -6.344434 0.0 0.0
                      CHANNELS 3 Zrotation Yrotation Xrotation
                      JOINT RightHandIndex3
                      {
                        OFFSET -3.654871 0.0 -8e-06
                        CHANNELS 3 Zrotation Yrotation Xrotation
                        JOINT RightHandIndex4
                        {
                          OFFSET -2.327586 -1e-06 0.0
                          CHANNELS 3 Zrotation Yrotation Xrotation
                          JOINT RightHandIndexEnd
                          {
                            OFFSET -2.770001 3e-06 8e-06
                            CHANNELS 3 Zrotation Yrotation Xrotation
                          }
                        }
                      }
                    }
                  }
                  JOINT RightHandMiddle1
                  {
                    OFFSET -3.168223 -0.944764 0.411762
                    CHANNELS 3 Zrotation Yrotation Xrotation
                    JOINT RightHandMiddle2
                    {
                      OFFSET -6.266691 -1e-06 -4e-06
                      CHANNELS 3 Zrotation Yrotation Xrotation
                      JOINT RightHandMiddle3
                      {
                        OFFSET -4.348901 0.0 0.0
                        CHANNELS 3 Zrotation Yrotation Xrotation
                        JOINT RightHandMiddle4
                        {
                          OFFSET -3.00024 2e-06 -4e-06
                          CHANNELS 3 Zrotation Yrotation Xrotation
                          JOINT RightHandMiddleEnd
                          {
                            OFFSET -2.321477 -4e-06 -4e-06
                            CHANNELS 3 Zrotation Yrotation Xrotation
                          }
                        }
                      }
                    }
                  }
                  JOINT RightHandRing1
                  {
                    OFFSET -2.885654 0.293261 -0.119232
                    CHANNELS 3 Zrotation Yrotation Xrotation
                    JOINT RightHandRing2
                    {
                      OFFSET -6.032835 -1e-06 -4e-06
                      CHANNELS 3 Zrotation Yrotation Xrotation
                      JOINT RightHandRing3
                      {
                        OFFSET -4.33881 0.0 -4e-06
                        CHANNELS 3 Zrotation Yrotation Xrotation
                        JOINT RightHandRing4
                        {
                          OFFSET -2.654903 -4e-06 -4e-06
                          CHANNELS 3 Zrotation Yrotation Xrotation
                          JOINT RightHandRingEnd
                          {
                            OFFSET -1.935122 0.0 4e-06
                            CHANNELS 3 Zrotation Yrotation Xrotation
                          }
                        }
                      }
                    }
                  }
                  JOINT RightHandPinky1
                  {
                    OFFSET -2.866241 1.503904 -0.60527
                    CHANNELS 3 Zrotation Yrotation Xrotation
                    JOINT RightHandPinky2
                    {
                      OFFSET -5.553177 -2e-06 0.0
                      CHANNELS 3 Zrotation Yrotation Xrotation
                      JOINT RightHandPinky3
                      {
                        OFFSET -3.062664 -1e-06 -4e-06
                        CHANNELS 3 Zrotation Yrotation Xrotation
                        JOINT RightHandPinky4
                        {
                          OFFSET -1.546529 2e-06 4e-06
                          CHANNELS 3 Zrotation Yrotation Xrotation
                          JOINT RightHandPinkyEnd
                          {
                            OFFSET -1.952341 0.0 -4e-06
                            CHANNELS 3 Zrotation Yrotation Xrotation
                          }
                        }
                      }
                    }
                  }
                }
              }
            }
          }
        }
      }
    }
    JOINT LeftLeg
    {
      OFFSET -8.443107 2.567604 10.043214
      CHANNELS 3 Zrotation Yrotation Xrotation
      JOINT LeftShin
      {
        OFFSET 43.229198 1e-06 -1e-06
        CHANNELS 3 Zrotation Yrotation Xrotation
        JOINT LeftFoot
        {
          OFFSET 42.298611 1e-06 1e-06
          CHANNELS 3 Zrotation Yrotation Xrotation
          JOINT LeftToeBase
          {
            OFFSET 14.165858 1e-06 0.0
            CHANNELS 3 Zrotation Yrotation Xrotation
            JOINT LeftToeEnd
            {
              OFFSET 6.7141 -0.234461 0.0
              CHANNELS 3 Zrotation Yrotation Xrotation
            }
          }
        }
      }
    }
    JOINT RightLeg
    {
      OFFSET -8.303923 2.592729 -10.047278
      CHANNELS 3 Zrotation Yrotation Xrotation
      JOINT RightShin
      {
        OFFSET -43.369682 0.0 1e-06
        CHANNELS 3 Zrotation Yrotation Xrotation
        JOINT RightFoot
        {
          OFFSET -42.260784 4e-06 2e-06
          CHANNELS 3 Zrotation Yrotation Xrotation
          JOINT RightToeBase
          {
            OFFSET -14.222245 -2e-06 -1e-06
            CHANNELS 3 Zrotation Yrotation Xrotation
            JOINT RightToeEnd
            {
              OFFSET -6.660062 0.232574 -2e-06
              CHANNELS 3 Zrotation Yrotation Xrotation
            }
          }
        }
      }
    }
  }
}
MOTION
Frames: 4
Frame Time: 0.03333333333333333
0.0 0.0 0.0 0.0 -0.0 0.0 0.319003 99.382118 3.714132 91.098244 0.909328 89.949196 -1.855957 0.095642 -0.136625 -11.395151 -0.515645 0.111487 17.3405 -0.55774 -1.941925 18.243845 -1.779795 2.726837 -2.462128 -0.720555 1.074449 -23.348642 -1.838263 2.603123 6e-06 0.0 0.0 -0.038358 0.02513 -0.075535 -0.038208 0.134639 -0.05602 -0.001174 -0.091032 -0.090154 -138.25119 -69.562508 155.941788 29.945831 -51.109585 8.275789 33.136024 0.001117 0.152147 6.099422 -4.41781 5.401919 17.636633 -26.322735 52.411201 -19.466665 -14.395598 29.410395 -0.0 -8.774821 -3e-06 16.029982 -18.191961 6.06264 -0.609776 -1.795653 -3.889327 -4.807089 -11.046813 -2.93785 6e-06 -20.976019 -3e-06 -5.019969 -25.033558 -4.031881 6e-06 2e-06 1e-06 -10.634533 -5.686971 -3.565587 10.573275 -17.922951 -3.1139 4e-06 -13.821208 -1e-06 -0.501779 -31.181505 -4.027014 -11.707421 -59.721169 7.260635 -13.982712 -7.150198 -2.875042 13.772729 -8.401491 -3.218241 0.347735 -34.211555 0.771656 -0.963029 -17.733372 2.621022 -0.0 0.0 -0.0 -17.346418 -20.095219 -4.201784 21.757561 -1.638376 3.866429 1e-06 -6.338821 -0.0 -1.69759 -22.591745 -6.194008 1e-06 -3e-06 -1e-06 32.336201 -71.55127 165.744629 35.157436 -52.189911 2.933845 30.779722 0.076691 0.18528 4.438771 -1.971696 10.423838 22.182114 -20.375895 49.933319 -16.701811 -16.743528 28.476528 -2e-06 -12.690601 -1e-06 16.308779 -18.017162 2.597567 -0.105921 -1.513857 -4.275882 -5.039041 -5.612872 -2.953554 5e-06 -11.020521 -1e-06 -6.111297 -15.89533 -3.840475 -0.0 1e-06 -0.0 -10.283372 -5.680289 -4.341838 11.028292 -11.302402 -2.372632 -1.38427 -14.238579 -6.32012 -0.625441 -26.924185 -3.827599 -4.431032 -50.085079 -3.850152 -13.708527 -7.363478 -3.720936 18.14115 -14.052739 -3.242675 5e-06 -18.78727 -2e-06 -0.429712 -8.456043 2.555504 2e-06 -1e-06 -1e-06 -15.923536 -20.094482 -5.473587 30.41921 -7.190826 1.735929 2e-06 -8.162925 -0.0 -1.8619 -22.861469 -6.167945 -0.0 -4e-06 0.0 -177.173996 -5.769227 -9.918159 9.587209 -0.047583 0.014155 -79.757828 0.686434 -8.645637 -5.832827 1.514667 2.113021 -0.999997 0.0 0.0 -0.344346 -8.036652 -8.967276 15.971684 -0.0117 0.003053 -82.523285 -0.334592 -8.959843 -5.435037 0.672684 1.665303 -1.000001 -0.0 0.0 
0.0 0.0 0.0 0.0 -0.0 0.0 0.341432 99.413994 3.72638 91.112801 0.89046 89.990395 -1.853516 0.072333 -0.143402 -11.382153 -0.505778 0.132573 17.324638 -0.558795 -1.975661 18.212305 -1.723889 2.703975 -2.460088 -0.688711 1.092431 -23.368525 -1.858761 2.603722 6e-06 0.0 0.0 -0.036008 0.023109 -0.06067 -0.0251 0.133598 -0.03916 0.013043 -0.094022 -0.077384 -138.302368 -69.544777 156.130966 29.895475 -51.045715 8.410435 32.957405 -0.047904 0.108677 6.205844 -4.511658 5.678495 17.636627 -26.322725 52.41119 -19.466661 -14.395597 29.410389 1e-06 -8.774821 -4e-06 16.042973 -18.14097 6.005531 -0.609777 -1.795654 -3.889327 -4.80709 -11.04681 -2.937853 6e-06 -20.976015 -4e-06 -5.019971 -25.033556 -4.031882 6e-06 0.0 -0.0 -10.634536 -5.686971 -3.565586 10.573275 -17.922949 -3.113903 3e-06 -13.821206 -4e-06 -0.501776 -31.181505 -4.027017 -11.627177 -59.610306 7.239835 -13.982716 -7.150198 -2.875041 13.772731 -8.40149 -3.218243 0.347735 -34.211552 0.77165 -0.96303 -17.733366 2.62102 1e-06 -1e-06 1e-06 -17.346422 -20.095219 -4.20178 21.757561 -1.638374 3.866428 2e-06 -6.338822 0.0 -1.697591 -22.591747 -6.194007 1e-06 -3e-06 -1e-06 32.321945 -71.432449 165.889236 34.644615 -52.177383 3.299292 30.669203 0.059452 0.182889 4.374601 -2.153208 10.518036 22.182117 -20.375896 49.933319 -16.701815 -16.743528 28.47653 -2e-06 -12.690601 -2e-06 16.321905 -17.989731 2.558225 -0.105921 -1.513856 -4.275884 -5.039042 -5.612873 -2.953555 5e-06 -11.020525 -3e-06 -6.111297 -15.895334 -3.840473 -0.0 1e-06 -0.0 -10.283371 -5.680288 -4.341838 11.028294 -11.302406 -2.372633 -1.384269 -14.238581 -6.320122 -0.625435 -26.924191 -3.827602 -4.444788 -50.126549 -3.818804 -13.708524 -7.363477 -3.720941 18.14115 -14.052741 -3.242675 8e-06 -18.78727 -2e-06 -0.429712 -8.456044 2.555504 3e-06 -1e-06 -3e-06 -15.923536 -20.094486 -5.473587 30.419214 -7.190827 1.735927 4e-06 -8.162928 -1e-06 -1.861901 -22.861473 -6.167942 1e-06 -4e-06 0.0 -176.907455 -5.671751 -9.933976 9.00625 -0.033704 0.054561 -79.441757 0.685563 -8.723479 -5.866123 1.534781 2.119375 -0.999999 -0.0 0.0 -0.192542 -8.035221 -8.966532 15.652234 -0.009397 -0.001322 -82.371254 -0.357389 -8.961112 -5.482711 0.657429 1.663775 -1.000001 -1e-06 -0.0 
0.0 0.0 0.0 0.0 -0.0 0.0 0.373165 99.432961 3.706145 91.134583 0.886047 90.027908 -1.842396 0.045018 -0.148751 -11.376861 -0.500753 0.136302 17.358164 -0.556937 -1.980276 18.18462 -1.662471 2.707434 -2.486491 -0.662731 1.069981 -23.346004 -1.887643 2.576717 6e-06 0.0 0.0 -0.036124 0.023321 -0.056741 -0.026944 0.131882 -0.032659 0.015772 -0.092185 -0.076292 -138.341232 -69.527237 156.276001 29.809381 -50.883068 8.611299 32.802303 -0.119076 0.065984 6.241836 -4.628193 5.782643 17.636623 -26.322737 52.411205 -19.466665 -14.395598 29.410395 0.0 -8.774821 -5e-06 16.060263 -18.140518 5.966632 -0.609778 -1.795653 -3.88933 -4.807088 -11.04681 -2.93785 5e-06 -20.976015 -3e-06 -5.019967 -25.033554 -4.031878 5e-06 1e-06 1e-06 -10.634533 -5.68697 -3.565585 10.573272 -17.922951 -3.113904 3e-06 -13.821209 -1e-06 -0.501779 -31.181505 -4.027015 -11.612579 -59.534134 7.187968 -13.982712 -7.150199 -2.875041 13.772729 -8.401491 -3.218242 0.347732 -34.211555 0.771653 -0.96303 -17.73337 2.621019 0.0 -0.0 -0.0 -17.346422 -20.095219 -4.201783 21.757563 -1.638374 3.866428 1e-06 -6.338821 0.0 -1.697591 -22.591743 -6.194006 -2e-06 -2e-06 -3e-06 32.196495 -71.330101 166.094925 34.026958 -52.096317 3.803327 30.609043 0.047664 0.181241 4.256474 -2.277479 10.39498 22.182114 -20.375898 49.933319 -16.701807 -16.743526 28.476528 -2e-06 -12.690599 -1e-06 16.334541 -17.947006 2.526945 -0.10592 -1.513857 -4.27588 -5.039039 -5.612871 -2.953557 4e-06 -11.02052 -3e-06 -6.111295 -15.89533 -3.840472 -1e-06 0.0 1e-06 -10.283369 -5.680288 -4.341837 11.02829 -11.302401 -2.372633 -1.38427 -14.238579 -6.320119 -0.62544 -26.924185 -3.827602 -4.432152 -50.12188 -3.83868 -13.708523 -7.363475 -3.720936 18.141146 -14.052736 -3.242673 5e-06 -18.787268 -3e-06 -0.429714 -8.456043 2.555507 1e-06 -1e-06 -2e-06 -15.923536 -20.094481 -5.473582 30.41921 -7.190823 1.735926 4e-06 -8.162927 -0.0 -1.861903 -22.861467 -6.167944 2e-06 -6e-06 -1e-06 -176.791 -5.595685 -9.969794 8.719006 -0.031993 0.081161 -79.296333 0.705057 -8.760937 -5.852356 1.539636 2.12401 -0.999999 0.0 0.0 -0.11993 -8.068419 -8.978335 15.483851 0.001178 -0.009679 -82.270996 -0.37939 -9.010505 -5.460337 0.655636 1.665509 -1.000002 -0.0 0.0 
0.0 0.0 0.0 0.0 -0.0 0.0 0.413808 99.446365 3.659383 91.154999 0.899189 90.046478 -1.82027 0.008695 -0.155378 -11.378992 -0.489946 0.141814 17.416254 -0.552503 -1.946355 18.182028 -1.606484 2.700703 -2.510714 -0.653288 1.060141 -23.349291 -1.889239 2.504164 6e-06 0.0 0.0 -0.036252 0.023754 -0.054942 -0.03036 0.129782 -0.028392 0.016307 -0.089469 -0.077151 -138.391006 -69.496941 156.426804 29.784689 -50.577328 8.875111 32.547718 -0.185022 0.037137 6.288069 -4.69347 5.814458 17.636633 -26.322735 52.411186 -19.466656 -14.395597 29.410381 0.0 -8.774819 -2e-06 16.06806 -18.129927 5.943403 -0.609777 -1.795653 -3.889328 -4.807088 -11.046809 -2.937847 4e-06 -20.976015 -1e-06 -5.019971 -25.033556 -4.031879 6e-06 1e-06 0.0 -10.634535 -5.686971 -3.565587 10.573272 -17.922951 -3.113899 3e-06 -13.821211 -1e-06 -0.501781 -31.181505 -4.02701 -11.581093 -59.488689 7.137758 -13.982713 -7.150198 -2.87504 13.772728 -8.401489 -3.21824 0.347732 -34.211555 0.771657 -0.96303 -17.73337 2.621023 -1e-06 0.0 1e-06 -17.346416 -20.095217 -4.20178 21.757555 -1.638374 3.866428 1e-06 -6.338821 1e-06 -1.697591 -22.591743 -6.194005 -1e-06 -4e-06 -1e-06 32.007748 -71.266197 166.32933 33.418125 -51.94994 4.467935 30.530922 0.061371 0.184739 4.088771 -2.435098 10.147895 22.182121 -20.375895 49.933323 -16.701813 -16.74353 28.47653 -1e-06 -12.690605 -2e-06 16.330376 -17.9042 2.515177 -0.10592 -1.513857 -4.275882 -5.039042 -5.612873 -2.953554 4e-06 -11.020521 -1e-06 -6.1113 -15.89533 -3.840474 0.0 -1e-06 1e-06 -10.283373 -5.680288 -4.341837 11.028296 -11.302404 -2.372635 -1.384271 -14.238581 -6.320122 -0.625439 -26.924191 -3.8276 -4.427493 -50.077682 -3.83959 -13.708527 -7.363477 -3.720941 18.141151 -14.052737 -3.242674 5e-06 -18.78727 -1e-06 -0.42971 -8.456047 2.555502 2e-06 -1e-06 -2e-06 -15.923539 -20.094484 -5.473586 30.419218 -7.190826 1.735927 5e-06 -8.162927 -3e-06 -1.861903 -22.861469 -6.167944 1e-06 -4e-06 0.0 -176.746521 -5.537485 -10.053055 8.58888 -0.033117 0.093825 -79.200958 0.737405 -8.776821 -5.843133 1.537541 2.12355 -1.0 0.0 -0.0 -0.082703 -8.114697 -9.002577 15.38194 0.009252 -0.022315 -82.185181 -0.36192 -9.07943 -5.454421 0.652357 1.665624 -1.000001 -0.0 -0.0 
